<svg id="Layer_1" data-name="Layer 1" xmlns="http://www.w3.org/2000/svg" viewBox="0 0 88.3 17.6" width="192px">
    <defs>
        <style>.cls-1{fill:#0066b3;}</style>
    </defs>
    <title>icon-bing-lee</title>
    <path class="cls-1" d="M7.5,5.2a0.75,0.75,0,0,1,.9.9,0.81,0.81,0,0,1-.8.9H6.2V5.2H7.5ZM7.6,17.4c3.7,0,5.8-1.5,5.8-4.8A4.39,4.39,0,0,0,11,8.4a3.92,3.92,0,0,0,1.9-3.6c0-2.7-1.8-4.3-4.5-4.3h-7L0,5.6H1.3V17.3H7.6v0.1Zm-0.1-7a0.89,0.89,0,0,1,1,1.1,0.87,0.87,0,0,1-.9,1H6.2V10.4H7.5Z"/>
    <path class="cls-1" d="M19.6,0.5V17.4H14.7V5.6H13.4l1.4-5.1h4.8Z"/>
    <path class="cls-1" d="M26.4,9.9v7.5H21.5V5.6H20.2l1.4-5.1h4.8l3.7,6.3V0.5H35V17.4H30.8Z"/>
    <path class="cls-1" d="M44.9,6.7H52c0,3.7-.3,5.6-1.8,7.7a8,8,0,0,1-6.3,3.2,8.47,8.47,0,0,1-8.1-8.7,8.27,8.27,0,0,1,8-8.5,16.36,16.36,0,0,1,2,.1L46.5,0l3.6,2.4L46.6,6.5a4.45,4.45,0,0,0-2.6-1,3.25,3.25,0,0,0-3.1,3.4,3.35,3.35,0,0,0,3.3,3.4,3.58,3.58,0,0,0,2.5-1.1H44.1Z"/>
    <path class="cls-1" d="M62,12.2h3.3l-1.4,5.2H57.1V5.6H55.8l1.4-5.1H62V12.2Z"/>
    <path class="cls-1" d="M74.7,17.4H65.6V5.6H64.3l1.4-5.1h5.7l0.1-.4h4.8L74.7,5.7H70.4V6.8h5.5l-1.1,4.1H70.4v1.2h5.8Z"/>
    <path class="cls-1" d="M86.7,17.4H77.6V5.6H76.3l1.4-5.1h5.7l0.1-.4h4.8L86.7,5.7H82.4V6.8h5.5l-1.1,4.1H82.4v1.2h5.8Z"/>
</svg>
